<svg xmlns="http://www.w3.org/2000/svg" width="166" height="132" viewBox="0 0 166 132" version="1.1">
	<path d="M 82.363 14.038 C 78.258 14.851, 69.012 19.186, 63.770 22.755 C 61.232 24.483, 61.146 24.763, 62.543 26.758 L 64.045 28.902 68.460 25.923 C 76.065 20.790, 81.965 18.693, 90.164 18.207 C 112.031 16.912, 130.715 31.982, 135.264 54.585 C 136.518 60.816, 136.908 61.530, 139.207 61.805 L 141.758 62.109 140.351 56.022 C 137.468 43.541, 131.969 32.824, 124.946 26 C 114.483 15.832, 97.458 11.050, 82.363 14.038 M 128.706 13.750 C 128.479 14.162, 128.690 15.962, 129.175 17.750 C 129.811 20.091, 130.638 21, 132.136 21 C 133.723 21, 134.044 20.586, 133.494 19.250 C 131.522 14.460, 131.848 13.493, 134.422 16.500 C 136.704 19.165, 136.991 19.271, 136.995 17.450 C 136.998 16.322, 136.460 14.860, 135.800 14.200 C 134.481 12.881, 129.362 12.557, 128.706 13.750 M 29 19.810 C 29 24.285, 31.662 32.078, 34.975 37.301 C 37.257 40.899, 39.333 42.713, 43.260 44.541 C 48.410 46.938, 56 47.867, 56 46.100 C 56 45.605, 51.522 40.543, 46.049 34.851 C 32.681 20.950, 34.644 19.557, 48.504 33.110 C 54.347 38.825, 59.549 43.650, 60.064 43.833 C 61.528 44.355, 61.164 38.837, 59.391 33.634 C 56.280 24.505, 47.992 19.122, 34.750 17.630 L 29 16.983 29 19.810 M 85.187 28.569 C 79.228 33.961, 76.273 34.867, 77.527 30.916 C 78.181 28.855, 77.754 28.691, 74.208 29.641 C 72.128 30.198, 71.976 30.655, 72.563 34.574 C 73.192 38.764, 73.066 39.025, 68.353 43.367 C 65.681 45.829, 62.146 49.002, 60.497 50.420 L 57.500 52.998 60.250 53.149 C 61.763 53.232, 63.382 53.345, 63.850 53.400 C 64.317 53.455, 70.639 48.100, 77.898 41.500 C 85.157 34.900, 91.707 29.363, 92.453 29.195 C 93.199 29.027, 94.415 29.721, 95.155 30.737 C 95.895 31.754, 101.679 37.341, 108.008 43.155 C 118.242 52.555, 119.850 53.676, 122.536 53.281 C 125.546 52.840, 125.527 52.811, 116.028 43.622 C 101.657 29.720, 94.026 23, 92.613 23 C 91.913 23, 88.571 25.506, 85.187 28.569 M 134 25 C 134 25.550, 134.675 26, 135.500 26 C 136.325 26, 137 25.550, 137 25 C 137 24.450, 136.325 24, 135.500 24 C 134.675 24, 134 24.450, 134 25 M 141.400 28.765 C 139.888 29.775, 138 33.521, 138 35.511 C 138 37.381, 143.253 43, 145 43 C 145.635 43, 147.469 41.685, 149.077 40.077 C 152.480 36.674, 152.953 32.172, 150.171 29.655 C 148.295 27.957, 143.360 27.456, 141.400 28.765 M 80.733 44.296 L 69.967 54.500 69.983 65.250 L 70 76 85.813 76 L 101.626 76 104.194 73.250 C 105.607 71.737, 107.414 69.218, 108.211 67.651 C 109.603 64.913, 109.729 64.872, 111.450 66.593 C 113.171 68.313, 113.209 68.171, 112.428 62.942 C 111.981 59.949, 111.680 56.308, 111.759 54.850 C 111.875 52.732, 110.017 50.376, 102.497 43.100 C 97.323 38.095, 92.732 34.021, 92.295 34.046 C 91.858 34.071, 86.655 38.684, 80.733 44.296 M 41.309 56.004 C 40.777 59.307, 40.516 62.183, 40.729 62.396 C 40.942 62.608, 41.962 62.561, 42.997 62.291 C 45.457 61.647, 47.773 52.108, 45.777 50.841 C 43.126 49.159, 42.248 50.173, 41.309 56.004 M 83.667 52.667 C 83.300 53.033, 83 56.858, 83 61.167 L 83 69 92 69 L 101 69 101 60.500 L 101 52 92.667 52 C 88.083 52, 84.033 52.300, 83.667 52.667 M 93.607 56.582 C 92.555 59.324, 92.929 60, 95.500 60 C 97.500 60, 98 59.500, 98 57.500 C 98 54.624, 94.629 53.919, 93.607 56.582 M 86 58 C 86 59.467, 86.667 60, 88.500 60 C 90.333 60, 91 59.467, 91 58 C 91 56.533, 90.333 56, 88.500 56 C 86.667 56, 86 56.533, 86 58 M 86 64.500 C 86 65.433, 86.944 66, 88.500 66 C 90.056 66, 91 65.433, 91 64.500 C 91 63.567, 90.056 63, 88.500 63 C 86.944 63, 86 63.567, 86 64.500 M 94 64.500 C 94 65.333, 94.889 66, 96 66 C 97.111 66, 98 65.333, 98 64.500 C 98 63.667, 97.111 63, 96 63 C 94.889 63, 94 63.667, 94 64.500 M 40 69.412 C 40 75.771, 43.201 87.703, 46.561 93.872 C 53.166 105.996, 62.755 113.918, 76.348 118.481 C 85.965 121.709, 89.257 121.800, 88.820 118.824 C 88.561 117.063, 87.384 116.396, 82.634 115.321 C 74.589 113.501, 65.991 108.705, 59.963 102.678 C 53.376 96.091, 47.192 83.730, 45.680 74.131 C 44.668 67.704, 44.332 67, 42.279 67 C 40.537 67, 40 67.568, 40 69.412 M 47 70.411 C 47 72.287, 47.853 76.561, 48.895 79.909 C 53.481 94.646, 66.143 107.098, 80.932 111.415 C 88.569 113.644, 89 113.542, 89 109.500 C 89 106.314, 88.743 106, 86.134 106 C 80.988 106, 69.177 99.191, 62.026 92.102 C 55.519 85.651, 51.357 78.195, 49.550 69.750 C 48.722 65.878, 47 66.324, 47 70.411 M 134.681 67.750 C 134.441 68.162, 133.532 70.984, 132.662 74.020 C 130.623 81.125, 126.267 87.641, 119.298 94.011 C 113.040 99.730, 108.038 102.570, 100 104.967 C 94.907 106.486, 94.476 106.851, 94.179 109.903 L 93.858 113.200 98.179 112.500 C 108.150 110.887, 121.429 102.172, 127.132 93.500 C 130.949 87.694, 134.511 78.442, 135.521 71.710 C 136.163 67.430, 135.817 65.799, 134.681 67.750 M 137.351 72.285 C 137.109 81.008, 132.017 93.495, 125.826 100.545 C 119.758 107.457, 107.617 114.359, 99 115.797 C 95.392 116.399, 94.437 116.989, 94.180 118.774 C 93.913 120.635, 94.334 121, 96.749 121 C 101.045 121, 109.737 118.213, 116.334 114.720 C 129.724 107.632, 141.066 89.294, 142.138 73 C 142.483 67.764, 142.380 67.486, 140 67.216 C 137.625 66.946, 137.493 67.199, 137.351 72.285 M 57.556 76.910 C 56.841 78.066, 57.762 80.549, 60.589 85.091 C 64.233 90.945, 82.759 98.307, 88.182 96.057 C 89.457 95.528, 94.550 94.594, 99.500 93.980 C 104.450 93.367, 110.300 92.065, 112.500 91.087 C 117.258 88.973, 125 80.881, 125 78.022 C 125 75.007, 123.417 75.578, 121.949 79.123 L 120.655 82.247 118.744 79.623 C 117.693 78.181, 116.196 77, 115.417 77 C 113.450 77, 113.644 77.992, 116.127 80.635 L 118.254 82.900 115.331 85.823 C 111.440 89.714, 104.472 91.243, 89.500 91.493 C 72.614 91.774, 66.220 89.217, 61.997 80.493 C 59.857 76.073, 58.666 75.113, 57.556 76.910 M 65.962 78.830 C 64.727 79.830, 63.912 81.236, 64.151 81.954 C 64.463 82.888, 65.403 82.557, 67.457 80.790 C 70.818 77.900, 69.402 76.044, 65.962 78.830 M 73 81.290 C 71.625 81.925, 70.163 82.907, 69.751 83.472 C 68.650 84.983, 73.694 89, 76.691 89 L 79.270 89 76.527 86.843 L 73.785 84.686 76.074 83.460 C 80.176 81.265, 99.199 81.928, 105.250 84.477 C 108.255 85.742, 107.203 83.156, 104.050 81.526 C 100.421 79.649, 76.939 79.471, 73 81.290 M 107.777 81.557 C 109 82.413, 110 83.537, 110 84.054 C 110 85.478, 103.651 87.878, 102.550 86.870 C 101.200 85.634, 80 85.756, 80 87 C 80 87.550, 82.138 88.025, 84.750 88.056 C 87.362 88.087, 93.325 88.232, 98 88.377 C 104.880 88.592, 107.120 88.280, 109.750 86.740 C 111.537 85.693, 113 84.456, 113 83.990 C 113 82.376, 109.847 80, 107.706 80 L 105.555 80 107.777 81.557 M 107 95.550 C 104.525 96.259, 98.900 96.920, 94.500 97.019 C 84.792 97.238, 87.826 98.747, 98.282 98.900 C 104.894 98.997, 111.050 97.346, 112.437 95.102 C 113.230 93.819, 112.970 93.840, 107 95.550 M 70 95.777 C 70 96.842, 77.975 100.232, 84.500 101.941 C 89.588 103.274, 98 103.310, 98 102 C 98 101.450, 96.293 101, 94.207 101 C 91.043 101, 77.347 97.605, 71.577 95.391 C 70.710 95.058, 70 95.232, 70 95.777" stroke="none" fill="#000000" fill-rule="evenodd"/>
</svg>