<?xml version="1.0" encoding="UTF-8"?>
<svg version="1.1" viewBox="0 0 1024 1024" width="1024" height="1024" xmlns="http://www.w3.org/2000/svg">
<path transform="translate(0)" d="m0 0h1024v1024h-1024z" fill="#C3BAA2"/>
<path transform="translate(497,96)" d="m0 0h35l34 3 24 4 28 7 25 9 30 13 16 9 20 12 18 13 14 11 13 12 17 17 9 11 12 15 10 14 11 17 4 7 12 23 11 26 8 24 7 28 2 17 2 22v36l-2 24-3 18-6 25-8 27-12 28-13 24-12 19-13 18-12 14-7 7-7 8-12 11-11 9-16 13-18 12-21 12-19 9-19 8-16 6-24 7-11 3-24 4-35 4h-38l-22-2-12-2-21-3-27-6-24-7-29-11-27-13-22-14-14-10-13-11-10-8-15-14-14-15-9-11-12-16-13-22-9-16-12-26-12-35-7-30-3-25-1-11v-36l3-31 4-22 5-19 10-30 7-15 7-16 13-23 14-20 9-12 9-11 12-13 8-9 8-7 15-13 19-14 15-10 23-13 26-12 25-9 24-7 24-5 29-4z" fill="#35381E"/>
<path transform="translate(486,109)" d="m0 0h54l34 4 23 5 34 10 9 4 15 6 7 4 7 3 15 8 10 6 15 10 5 3v2l5 2 13 11 11 9 15 15v2l4 2 3 4v2h2l4 5v2h2l12 16 4 5v3h2l11 18 7 13 10 19 8 19 7 19 7 27 3 17 2 20v47l-1 2h-11l-35-3v-26l12-7 7-7 5-9 3-5 2-15v-15l-3-13-3-6-7-9-7-5-10-3h-10l-10 3-4 3h-2l-2 4-4 2-2 6-4 11v7l-1 1v19l3 11 8 14 2 4 4 2 13 7v13l-1 13-48 1-19 1-28 4-15 2-53 10-22 6-26 7-15 5-29 9-10 4-14 5-8 3-14 5-11 5h-2v-69l7 1 12 3 26 3h28l19-3 21-6 22-11 10-6h2v-2l4-1v-2l11-8 15-14 8-9 13-18 4-7 8-15 8-19 7-20 4-13 5-25 3-30 3-35-43-2h-22l-28 4-29 8-11 5-13 5-18 10-20 14-14 12-12 13-12 16-10 16-4 8-3 3v-86l7 1h12l14-4 12-5 6-4 4-3h2l1-3 4-4h2l2-5 6-9 6-15 2-11v-23l-2-17-3-2-12-1h-24l-16 4-16 8-10 8-8 9-6 10-5 17-9-6-10-7-16-7-9-3-7-1h-22l-25 3 2 33 3 19 8 16 6 9v2l3 1 7 8 3 2v2l4 2 13 7 12 4 6 1h18l18-3 5-1v83l-1 6h-2l-5-9-1-3-3-1-9-11-9-8-2-1v-2l-4-2-6-4v-2l-5-2-11-7-16-8-17-7-13-4-22-5-17-2h-15l-24 2-27 4-8 2h-6l2 24 4 26 4 14 7 25 5 11 7 14 9 14 11 14 11 13 13 12 14 11 11 7v2l5 1 2 1v2l6 2 8 4 11 4 7 3 22 6 9 1h27l21-4 6-1v29l-9 5-7 3-12 6-14 8-5 3-15-7-13-5-8-3-11-4-9-3-25-7-13-3-19-3-14-1h-52l-1-2-1-44-1-21-6-1v16l-1 33v19l-22 3h-8l-5-23-5-29-1-18v-34l2-28 6-30 7-25 9-22 7-16 5-9 11-20 4-5 3-5 7-10 5-7h2l2-4 13-16 17-17 16-14 9-7h2v-2l5-3h2v-2l15-10 14-8 12-7h4v-2l25-11 26-9 24-6 21-4z" fill="#F9F9EF"/>
<path transform="translate(740,464)" d="m0 0h73l23 2 7 1 1 1-1 7-9 42h-77l-27 2-40 5-41 8-24 6-25 7-20 6-36 12-16 6-24 10-17 7-39 19-22 12-14 8-14 9-15 10-15 11-18 13-17 14-10 6-16-12-11-9-12-11 2-4 3-4h2l2-4 15-13 11-9 8-7 15-10 18-13 27-16 19-11 34-18 27-13 29-12 14-5 12-5 29-10 14-4 18-6 26-7 23-6 31-6 49-7z" fill="#8AA075"/>
<path transform="translate(768,529)" d="m0 0h42l17 2 1 3-4 11-7 14-4 10-1 2h-2l-2 7h-2l-3 10-1 2-50 1-48 5-32 6-34 8-35 10-17 5-18 7-21 7-13 6-14 5-9 4-13 7-7 3-7 2v2l-13 6h-2v2l-16 9-17 11-24 16-15 11-7 1-28-13-17-9-8-5 1-4 12-11 14-10h2v-2l4-1v-2l10-7h2v-2l15-10 11-7 4-1v-2l14-8 16-9 15-8 16-8 28-13 15-6 13-5 11-4 15-6 13-4 21-7 35-9 17-5 26-5 16-3 31-5 33-3z" fill="#B8D3AE"/>
<path transform="translate(645,221)" d="m0 0h33l21 2 2 1-1 18-6 44-8 31-6 15-4 5v-2l-10 8-1 2h-3v2l-12 8-7 2v2l-10 6-17 6-15 3h-25l-10-1-5-1v-2l-3-1-4-1-2 1 2-4 4-5h2l2-5 3-3h2l2-4 10-11-7 6-6 7h-2l-2 4-12 14-6 8h-2l-2 4-8 11-10 14-1 3h-2l-2 5-1 2h-2l-2 4-8 13-5 7h-11l-12-2-1-1v-73l3-16 14-29 11-18 4-5 1-2h2l2-4 10-11 7-8 6-4 5-5 4-1v-2l21-13 19-9 27-9 26-5z" fill="#8AA075"/>
<path transform="translate(292,292)" d="m0 0h36l25 5 14 4 14 6 14 7 9 6 15 11 14 12 7 7 6 8 5 7 6 11 5 11v93l-4 2h-11l-4-8-10-13-7-10-8-9-8-10-1-1h-27l-28-2-16-4-12-5-14-6-9-5v-2l-7-1 7 8 5 5 10 8 3 4v3h2l4 11 5 5v2l-4-2-11-9-10-10v-2h-2l-9-11-8-10-8-13-1-5h-2l-8-20-7-23-5-19-3-18v-9l4-3z" fill="#8BA176"/>
<path transform="translate(484,774)" d="m0 0 16 1 3 5 7 7 11 14 9 11 2 3v-37l-3-4h20v2h-2v51l1 1 2 10v3h4l1 3 4 2-2 3h2l1-2 3 1-1 4 12 5 18 1 2-1 10 4 4 2v-3h7l3 1 1-3 10-2 13-1h11l10 4 6 2 10 5h19l10-2h18l17 3 5 2-2 11h-2l-3-8v-2h-3l-1 8-3 3-3-10-3-2 1 9 3 12h-3v2l-3 1h-11l-2-1v-10l6-13-4 2-4 6-4-4-2-3-3-1 7 12v10h-4l-4-9-6-11v-2l-2 1-5 13-3 9-16 1-4 3-16 2-2 1-5 17-3 6-2 2h-12v-4h7l-1-4-7-1v-4l8-1 1-4h-14v24l-7 1h-2v-20h5v-5l-17 1 2 3 5 1v17l-3 1v-2h-2l-2 4-1-1v-6l-10 1-7 5-4 1-3 1h-17l-4-1h-13l-11 3-8-1-5 2-7-1-1-3 3-6 2-2 5 1 4 4v2h3l-3-12-7-13-8 16-2 10-3 2h-19l-4-1v-21l5 1v-6h-17v6h6v19l2 1-7 1h-16l-3 2h-9l-3-3h-19l-5 1-4-2v-13l5 4 4 5v2l3-1v-22l-3-1v12l-4-2-6-7-4-4 5-1 1-5-4 1-3 3-3-3-3-6-1-1v-12l3 3 6 1 1-4h1l1 11h2v-21h-2l-6 7-3-1-4-6-2-1-2 22-5 2-12-1v-19l5 1v-5h-15v5h6v17l-11 2-9 1h-9v-2l-13-1-1-3v-18l7-1 3-1v-2l7-2h5l3-1 10 2 7 1 8-4h14l12 3 10 1 2 1v-2h4v2l3 1-1 6-5 11-1 6h2l2-5h7l2 2v4h4l-2-10-5-10v-5l5-3 26-1 2-1 9-1 3-1 3 1h8l13-2h11l5-2 3 2h13l5-3 16-1 1-1v-5l-6 1-4-6-9-10-8-10-9-10-7-8-1 40-17 1 1-4v-64z" fill="#D7D4BF"/>
<path transform="translate(754,604)" d="m0 0h27l10 1-6 9-11 13-7 8-12 14-9 9-4 6-24 3-48 8-43 11-26 9-17 6-12 5-8 4-10 4-35 17-23 13-4 3-6-1-5-2v-2h-8l-7-1h-11l-27-6-10-3-7-2 5-5 11-9 21-13 10-7 16-9 22-12 23-11 34-14 27-10 22-7 23-7 32-8 31-7 37-5z" fill="#8AA075"/>
<path transform="translate(186,406)" d="m0 0h1l1 5h7l2-2v2h2l1-2v2h2l1-2v2l5-1v-2l4 2 1-3v3h4l1-2v2l3-1 15 1h9 3 9l4 1h11l2-1 10 14 11 13 7 8 11 10 14 11 11 7v2l5 1 2 1v2l6 2 8 4 11 4 7 3 22 6 9 1h27l21-4 6-1v29l-9 5-7 3-12 6-14 8-5 3-15-7-13-5-8-3-11-4-9-3-25-7-13-3-19-3-14-1h-52l-1-2-1-44-1-21-6-1v16l-1 33v19l-22 3h-8l-5-23-5-29-1-18v-34z" fill="#D9D5C0"/>
<path transform="translate(718,360)" d="m0 0 9 1 7 4 7 8 3 9v14l-4 12-5 8-10 7-2 26-2 3-28 4-15 2-53 10-22 6-26 7-15 5-29 9-10 4-14 5-8 3-14 5-11 5h-2v-69l7 1 12 3 26 3h28l19-3 21-6 16-8 2 1-1 2 6-1 18-8 16-9 15-7 11-2h25l10 7 8 6 2-1-10-10-5-6-4-11-1-6v-9l2-8 6-9 5-4 4-2z" fill="#D9D5C0"/>
<path transform="translate(740,464)" d="m0 0h73l23 2 7 1 1 1-1 7-2 10-28-1h-42l-11 1-40 2-22 3-20 4-25 3-16 4-25 7-26 6-60 20-28 10-25 12-38 18-16 8-24 13-11 7-13 8-18 11-19 13-19 14-12 7-13-1h-2v2l2 1-1 2 2 1-4-1-3-3 2-4 3-4h2l2-4 15-13 11-9 8-7 15-10 18-13 27-16 19-11 34-18 27-13 29-12 14-5 12-5 29-10 14-4 18-6 26-7 23-6 31-6 49-7z" fill="#B8D3AE"/>
<path transform="translate(255,300)" d="m0 0 8 4 12 11 13 11 17 12 15 11 12 8 12 9 13 11 8 6v2h2v2l4 2 21 21 7 8 9 11v1l-14 1h-12l-28-2-16-4-12-5-14-6-9-5v-2l-7-1 7 8 5 5 10 8 3 4v3h2l4 11 5 5v2l-4-2-11-9-10-10v-2h-2l-9-11-8-10-8-13-1-5h-2l-8-20-7-23-5-19-3-18v-9z" fill="#8AA075"/>
<path transform="translate(674,335)" d="m0 0h2l1 4-9 20-11 17-8 10-12 13-12 11-15 11-18 10-11 4-14 4-16 2h-35l-24-1v-1l7-1 12-19 3-4h2l2-5 1-2h2l1-4 9-13 10-13 1-2h2l2-4 11-13 7-9h2l2-4 10-10 2 1-6 7h-2l-2 4-5 5-5 7-5 5-1 2 5 1 3 3 14 2h25l15-3 19-7 6-4h2v-2l12-6 5-4h2v-2h3l1-3z" fill="#5F7345"/>
<path transform="translate(292,292)" d="m0 0h36l25 5 14 4 14 6 14 7 9 6 15 11 14 12 7 7 6 8 5 7 6 11 5 11v13l-2 2-5-13-6-11-7-9-8-8-8-7-6-4-5-5-3-1-3-3-20-12-15-8-15-6-19-6-24-4-12-1h-19l2 1 1 7 2 4 3 1 4 5v2l5 1 6 4v2l4 1 4 2v2l4 1 9 5v2h3v2h3v2l4 1v2l4 1v2l5 2 3 2v2l5 2v2l4 2 5 3v2l4 2 9 8 5 5 10 9 12 13 11 12 9 11 11 15 13 20 8 15-2 1h-8l-4-8-10-13-7-10-8-9-8-10-10-11-7-8-9-10-4-4v-2l-4-2-7-7-2-1v-2h-2v-2l-4-2-14-12-19-14-15-10-15-11-12-9-11-9-8-8-9-6-2-1v-2l12-3z" fill="#F6F7EB"/>
<path transform="translate(296,406)" d="m0 0 7 1v2l6 2 14 7 13 5 14 4 4 1 28 2h27l9 10 8 10 7 9 10 14 4 6v3h5v1l-26 4h-9l-21-3-27-9-19-9-11-7-8-6-1-4-5-4v-2l-2-9h-2l-4-7-12-9-7-8z" fill="#647A47"/>
<path transform="translate(375,176)" d="m0 0h29l12 3 17 9 13 12 7 11 4 9 3 14 2 13v8l-12 5h-7l-10-15-4-4v-2h-9l-18-3-13-6v-2l-5-2-12-12-3-8-2-13v-14l2-2z" fill="#8BA075"/>
<path transform="translate(740,464)" d="m0 0h60v1l-30 1-20 2h-7l-14 2-13 1-8 2-12 2-13 2-2 1-13 2-8 2-19 2-2 1h-7v2l-26 6-24 7-20 7h-4v2l-12 3-7 3-10 3-16 7-35 16-12 5-25 10-5 3-5 2-9 7-6 3h-2v2l-11 5h-2v2l-15 8-6 2-1 4-4 6-7 2-10 5-5 5-1 4-4 4-3 1v1l3 1-5 5-13 9-18 13-9 5-13-1h-2v2l2 1-1 2 2 1-4-1-3-3 2-4 3-4h2l2-4 15-13 11-9 8-7 15-10 18-13 27-16 19-11 34-18 27-13 29-12 14-5 12-5 29-10 14-4 18-6 26-7 23-6 31-6 49-7z" fill="#D7D5BF"/>
<path transform="translate(788,329)" d="m0 0h10l10 3 8 6 8 10 4 12 1 6v15l-2 15-5 9-6 8-8 7-7 4h-2l-1-23 11-9 4-5 1-8-5 3-9 7h-2l-1-36h-8v39h-4l-6-5 4 6 5 5v25l-6-2-10-6-7-10-5-10-2-9v-19l3-15 5-10 5-4 4-4 9-4z" fill="#8BA176"/>
<path transform="translate(233,524)" d="m0 0h55l21 3 17 3 18 4 21 6 8 3 18 7 8 4v2l-14 7-10 7-9-1-10-4-25-7-23-6-19-3-19-2h-30l-25 2h-7l-6-16 1-5 17-3z" fill="#F8F8ED"/>
<path transform="translate(508,144)" d="m0 0h34l2 8v22l-2 8-2 4-12 9-16 8-12 3h-12l-1 4-4 4-3 5-5 4h-5l-3-4-1-11v-24l5-13 7-9 5-5h2v-2l14-8z" fill="#B9D3AF"/>
<path transform="translate(645,221)" d="m0 0h33l21 2 1 1v5l-22 2-31 2-20 4-23 7-21 10-8 5h-2v3l-6 1-14 8-10 9-1 7h-2v2l-5 2-2 4-5 1-2 9-9 12-6 1v2l-4 1-6 10-6 11-10 21-7 19h-2v-27l3-10 12-25 8-14 8-11 1-2h2l2-4 10-11 7-8 6-4 5-5 4-1v-2l21-13 19-9 27-9 26-5z" fill="#F6F6EA"/>
<path transform="translate(674,335)" d="m0 0h2l1 4-9 20-11 17-8 10-12 13-12 11-15 11-18 10-11 4-14 4-7 1h-12l2-4 4-1 2 2 1-4-2-3-4 1-2-1 1-2h2l1-3h3l2-5 3 2 1-3 1 6 2-6 1-1v-2h2l1-4 4-1-1 3v3l1 5-2 1v5l5 2-1-5h3l3 2-1-6 3-1v-4h2v-2h2l-2-5h-3l-2-3-2 1-1-2-3-1-1 3-2-3h2v-4h2l-2-3v-3h-2v-4l1-1-4 1 1-4 3-1 3 3 4-4 3 1v3l1-4 4-3 9-1 22-1 19-8 16-9 7-6 5-8v-4l5-5z" fill="#667C4A"/>
<path transform="translate(230,558)" d="m0 0h48l18 2 23 5 14 4 13 4 11 6-1 2h-2v2l-11 7-9 7-9-1-23-6-19-3-9-1h-23l-24 1-13-26 1-1z" fill="#D9D5C0"/>
<path transform="translate(361,674)" d="m0 0h12l29 3 16 1 31 1v2h2l1 5-24 15-16 11-15 11-7 1-28-13-17-9-8-5 1-4 12-11z" fill="#8AA075"/>
<path transform="translate(666,248)" d="m0 0 5 1-3 6-13 13-9 7-4 2v2l-4 1v2l-13 10-13 12-8 7-10 9-15 15-7 8-6 7h-2l-2 4-12 14-6 8h-2l-2 4-8 11-10 14-1 3h-2l-2 5-1 2h-2l-2 4-8 13-5 7h-11l-7-2 4-2 5-5 9-12 14-21 7-11 8-10 13-17 6-8h3l2-5 14-15 25-25 14-11 22-18 10-8 9-7 5-4 6-3 4-3h3v-2h2z" fill="#F8F9ED"/>
<path transform="translate(484,774)" d="m0 0 16 1 3 5 7 7 11 14 9 11 2 3v-37l-3-4h20v2h-2v71l-8-1-11-12-8-10-9-10-7-8-1 40-17 1 1-4v-64z" fill="#35381E"/>
<path transform="translate(718,360)" d="m0 0 9 1 7 4 7 8 3 9v14l-4 12-5 8-10 7-2 26-2 3-8 1 2-1v-26l-10-10-5-6-4-11-1-6v-9l2-8 6-9 5-4 4-2z" fill="#C5CDAD"/>
<path transform="translate(227,424)" d="m0 0h8l10 4 8 8 4 9 1 4v16l-3 11-7 10-8 6-3 2-1 16h-1l-1-44-1-21-6-1v16l-1 32-3 1-8-5-6-7-4-8-2-11v-10l3-10 5-8 9-7z" fill="#8BA176"/>
<path transform="translate(630,773)" d="m0 0 2 1-3 4-1 4v58l1 7-12-2-11-13-10-13-11-12-1-1v37l1 3h-17l1-5v-62l-4-5h14l9 11 13 15 11 14 1 2 1-5v-34l-1-3h9z" fill="#33361D"/>
<path transform="translate(700,772)" d="m0 0h2v17l-34-1-3-1v15h29v16l-2-1-27-1v16l34-1 2-2 3 1-1 17h-54l2-7v-62l-3-4 50-1z" fill="#35381E"/>
<path transform="translate(194,773)" d="m0 0h55v17l-4-2-33-1v16l28-1v15l-28-1v16l34-1 5-1-1 17-55-1 2-3v-66z" fill="#33361C"/>
<path transform="translate(433,773)" d="m0 0h5l5 8 12 23 3 8 6 12 6 17 2 6h-19l1-2v-7l-3-6-19-1h-11l-4 8-1 7h-17l2-5 5-13 5-12 4-8 8-15 8-16z" fill="#35381E"/>
<path transform="translate(284,320)" d="m0 0 5 1 13 6 6 2v2l4 1 4 2v2l4 1 9 5v2h3v2h3v2l4 1v2l4 1v2l5 2 3 2v2l5 2v2l4 2 5 3v2l4 2 9 8 5 5 10 9 12 13 11 12 9 11 11 15 13 20 8 15-2 1h-8l-4-8-10-13-7-10-8-9-8-10-10-11-7-8-9-10-4-4v-2l-4-2-7-7-2-1v-2h-2v-2l-4-2-14-12-19-14-15-10-15-11-12-9-2-2z" fill="#F7F7EB"/>
<path transform="translate(743,772)" d="m0 0h9l9 2 11 5v3l-5 7-1 5h-2l-5-5-8-2h-7l-6 2-1 7 5 3 11 4 9 3 8 6 4 7v11l-5 9-6 5-9 3h-14l-12-4-10-5 1-4 6-10 4 2 6 4 7 2h9l5-2 2-4-1-5-6-3-16-4-9-6-4-6-1-3v-9l4-8 7-6z" fill="#34371D"/>
<path transform="translate(286,773)" d="m0 0h13l10 3 9 4-2 4-4 6-1 3-4-2-10-4h-8l-5 3-1 5 5 4 19 7 6 4 6 6 1 11-3 8-5 6-8 5-5 1h-15l-11-4-9-6 2-5 6-8 7 5 10 3h7l7-3 1-1v-6l-5-3-18-5-8-6-5-7v-14l6-8 7-5z" fill="#34371D"/>
<path transform="translate(734,531)" d="m0 0h38v1l-50 5-42 6-26 6-35 9-36 11-33 11-28 11-15 7-13 5-14 7-20 9-16 9-14 7-21 13-22 13-14 10-3 3h-7l1-2h2v-2l4-1v-2l10-7h2v-2l15-10 11-7 4-1v-2l14-8 16-9 15-8 16-8 28-13 15-6 13-5 11-4 15-6 13-4 21-7 35-9 17-5 26-5 16-3 31-5z" fill="#F2F2E5"/>
<path transform="translate(249,596)" d="m0 0h13l20 2 32 6 5 2-1 3-9 7-22 18-13 11-3 1-5-8-12-14-8-9-11-15 1-3z" fill="#959775"/>
<path transform="translate(751,413)" d="m0 0h16l8 3 14 8v13l-1 13-48 1-18 1 2-29 2 3 16-9z" fill="#D9D5C0"/>
<path transform="translate(780,690)" d="m0 0h14l12 5 8 8 2 5v10l-4 8-8 7-8 3-10 1-12-3-8-4-6-7-2-5v-10l5-8 7-6z" fill="#BAB69B"/>
<path transform="translate(403,185)" d="m0 0 9 1 16 8 11 8 10 9h3l3 4 4 12 3 20v8l-12 5h-7l-9-14 4-8-6-8-8-10-7-7-10-8-2-5-3-12z" fill="#8BA075"/>
<path transform="translate(841,371)" d="m0 0h1l3 22 1 11v47l-1 2h-11l-35-3v-26l10-6 2 1 3-1 11-5 9-2h11l-2-12-2-21z" fill="#D8D5BF"/>
<path transform="translate(334,773)" d="m0 0h61v18l-2-1v-2h-21l1 54 1 4h-20l2-3 1-11v-44h-17l-7 2z" fill="#34371D"/>
<path transform="translate(800,464)" d="m0 0h13l23 2 7 1 1 1-1 7-2 10-45-2-20-2h-2l-7-2-6-3h-13v-2h-36l-7 1-2-1-1 2-2-2 16-4 22-2 8-1 18-1 6-1z" fill="#C4CDAD"/>
<path transform="translate(788,773)" d="m0 0h59v18l-3-2-19-2v25l1 28 3 5-21 2 2-6v-54l-19 1-3 3z" fill="#34371D"/>
<path transform="translate(586,381)" d="m0 0h21l3 1 1 3 2-1-1 4h2l2-4 4 1 3 2v4l-6-1 2 1v3l-3 3h2v2l-4-1v-2h-2l-2 5-6 1v-2l-2 1 2 3v4h-3l-1-2-4 4v4l-4 1-1 3-3 3-1-4h-2l1 3h-2l3 7 3-3 1 2 2-1 2-4v5l4-1-1 3-13 6-18 5-7 1h-12l2-4 4-1 2 2 1-4-2-3-4 1-2-1 1-2h2l1-3h3l2-5 3 2 1-3 1 6 2-6 1-1v-2h2l1-4 4-1-1 3v3l1 5-2 1v5l5 2-1-5h3l3 2-1-6 3-1v-4h2v-2h2l-2-5h-3l-2-3-2 1-1-2-3-1-1 3-2-3h2v-4h2l-2-3v-3h-2v-4l1-1-4 1 1-4 3-1 3 3 4-4 3 1v3l1-4z" fill="#657B49"/>
<path transform="translate(702,773)" d="m0 0 6 3 4 6v7l-2 2-1-5h-3l-2-1 2 7 1 5-2 5 1 8-2 5 4 4 2 10-2 3-1 11-2 5h-1v-19l-5 3h-34v-16h27l1 1 1-15-4 1h-14l-11-1v-15l35 1 2 1-1-2v-12z" fill="#D8D4BF"/>
<path transform="translate(484,768)" d="m0 0h8v2h2v2l2 2-11 1 3 4v64l-4 2-1-1-8 2-1 2-3-3-6-16-5-10-3-7-5-12-9-17v-5l5-2 10-1 4-3h5l-2 4-7 3 3 1v4h7l2 1v21l5 1 2 7v2h-2l2 6 7 3 1-4 1-7v-33l-2-5-4-1v-5z" fill="#D9D5C0"/>
<path transform="translate(375,176)" d="m0 0h29l12 3 17 9 13 12 6 9-1 4-9-7-8-7-11-7-11-5-9-2 1 7 4 13 13 11 7 7 7 9 4 7-4 6-4-2-8-11-15-15-8-7-10-9-3-5 9 1-2-4-22-11-4-1 1-4z" fill="#C5CDAE"/>
<path transform="translate(699,473)" d="m0 0 3 1h3l13-1h26l4 1v2l13-1 11 5 9-1 3 2 12 1v1l-25 1-11 1-40 2-22 3-20 4-20 2-1-2 5-1 4-2h6l7-3 5-3-23 1-4-3 6-3 9-2 9-1 2-1 13-2z" fill="#B8D3AE"/>
<path transform="translate(541,144)" d="m0 0 2 4 1 4v22l-2 8-2 4-12 9-16 8-12 3h-10l4-7 12-14 11-11h2l2-4 6-7 3-5 1-4 6-5 4-1z" fill="#8BA076"/>
<path transform="translate(665,344)" d="m0 0 2 1-4 8-7 8-10 6-16 8-12 5-22 1-9 1-4 2 1 4h-2v-3l-5 1-2 3-1-3h-5l-1 7-3 1v1l2-1v3l5-1-1 4-2 3-2-2 1 4-6-3 1-3-1-7-2-2 3-1-2-3v2l-5 3-3-1v-2h2v-5l-3-1-3-3-2-1 1-3 1 1 3-5h12l2 1 10 1h25l15-3 19-7 6-4h2v-2l12-6 5-4h2v-2zm-119 34 2 2h-2z" fill="#5F7245"/>
<path transform="translate(309,218)" d="m0 0h11l7 3 5 4 3 7v10l-3 7-4 5-5 3-11 1-9-4-5-7-2-7 1-10 3-5 7-6z" fill="#8BA176"/>
<path transform="translate(461,547)" d="m0 0 3 1h-2v2l-8 4-3 5-11 3-2 2-1 5v3l-4 3-16 8-22 12-11 7-13 8-18 11-4 3-4-2v2l-2-1 2-3h3l2-4h2l1-5 8-7 7-3 8-3 4-8 19-10h2v-2l8-4 5-1v-2l9-5 9-7 7-3 19-8z" fill="#C4CEAE"/>
<path transform="translate(349,863)" d="m0 0 17 3 3 3h-6v5h6v17l-11 2-9 1h-9v-2l-13-1-1-3v-18l7-1 3-1v-2l7-2h5z" fill="#D5D3BD"/>
<path transform="translate(372,214)" d="m0 0 7 6 8 7 2 1v2l6 2 11 4 23 3 8 10 6 11-2 1h-21l-12-4-9-5-13-11-8-13-6-12z" fill="#545D3C"/>
<path transform="translate(381,399)" d="m0 0 6 2 7 3 2-1 1-3 13 13 9 11 10 12 20 30 8 15-2 1h-8l-4-8-10-13-7-10-8-9-8-10-10-11-7-8-9-10z" fill="#D8D6C0"/>
<path transform="translate(583,766)" d="m0 0h18l8 3v3l2-1 3 5 1 1v34l-1 6-4-4-10-13-9-10-9-11-3-3v-2h-8v-1l9-1v-4z" fill="#D8D4BF"/>
<path transform="translate(578,336)" d="m0 0 2 1-6 7h-2l-2 4-5 5-5 7-5 5-1 2 5 1 2 4h-9l-3 5v1h2l3 3h2l-1 7h-2v2l5-1 3-1v-2l2 1 1 3-1 1 1 9h-2l-1-2-2 1-2-1 1 4v1l5 5-2 2-2 4v-2h-2l-1 2-2 1v-2h-3l2 3-5-1-3-2-2 2-1-5-2-1-3 3v-5h3v-3h-6l-2-1v-2l-7 2-2 1 2-5 10-13 7-10h2l2-4 11-13 7-9h2l2-4zm-32 42v2l2-1z" fill="#667D4B"/>
<path transform="translate(296,406)" d="m0 0 7 1v2l6 2 14 7 13 5 14 4 4 1 28 2h27l3 3-1 3-19 4-13 1-8-1-2-3-6-1v-2l-9 4-10-1-18-6-10-5-11-8-7-8z" fill="#35381E"/>
<path transform="translate(412,434)" d="m0 0 5 5 9 11 7 9 10 14 4 6v3h5v1l-18 3h-8l1-2 3-1v-2-2l-1-2-4-1-1-5h-2l-2-4-3 1v2l2 1-4 1-1-7-2-1 1-3v-1h-3l-3-3-2-4v-5l-2 1-2-1v-2l-4 1-5-2v-4l19-5zm14 36 1 3z" fill="#667C4A"/>
<path transform="translate(495,158)" d="m0 0v3l-6 5 2 3 1 8 4 1 9-6 4-2-2 4-7 8-5 6-5 5-5 6-6 9-4 7-4 5-3 1-1-2-1-11v-24l2-4 1 3 10-13 12-10z" fill="#C4CEAE"/>
<path transform="translate(373,796)" d="m0 0h1l1 14 7 2 3 3 4 7 1 1h10l3 5 3-4 5-11 1 3-6 16-4 9-4 6 2 1-15 3h-6v-2l-5-1-1-4-1-2v-22z" fill="#D9D5BF"/>
<path transform="translate(538,186)" d="m0 0h2l-2 6-7 14-9 9-14 7-11 3h-14l-8-2 3-4h2l2-5 3-4h2l1-4 18-2 13-5 12-7z" fill="#607246"/>
<path transform="translate(547,351)" d="m0 0 2 1-6 8-2 4-5 6-3 5-2 1 4 11-11 15-3 6h-2l-2 5-1 2h-2l-2 4-8 13-5 7h-11l-7-2 4-2 5-5 9-12 14-21 7-11 8-10 13-17z" fill="#D9D6C0"/>
<path transform="translate(770,785)" d="m0 0 2 2h-2l-2 6v11l1 5 3 1v3l2-1-1-4v-5l8 1 2 4v7l5 4v11l-2 2-7 1-2 4-5 1-5 5-4 1 5-5 5-9v-11l-4-7-7-5-9-3-15-6-2-2 1-7 7-3h7l9 3 4 3v2h2l1-7z" fill="#D4D1BB"/>
<path transform="translate(503,805)" d="m0 0 16 16 11 14 8 9-2 1v2l-8 4h-7l-4-1-5-1v-2l-8-1-2-2z" fill="#D8D4BF"/>
<path transform="translate(508,770)" d="m0 0h20l5 2-3 3 3 3v38l-5-5-8-10-9-11-9-10-2-2v-3h-3l1-3z" fill="#D6D3BD"/>
<path transform="translate(780,690)" d="m0 0h14l12 5 8 8 2 5v10l-4 8-8 7-8 3-10 1-12-3-8-4-6-7-2-5v-10l5-8 7-6zm4 5-10 2-6 4-6 7-2 4 1 7 6 7 8 4 6 2h15l10-4 3-6h-7l-3-4v-7l2-4 5-1 6 2-4-6-10-6z" fill="#3A3E22"/>
<path transform="translate(583,805)" d="m0 0 7 6 9 10 10 13 5 6v3l-10-1-1 5-7 3-4 2-5-3-4-6z" fill="#D8D4BF"/>
<path transform="translate(625,376)" d="m0 0 3 1 1 2h-2l-1 7h-2l1 4-2 1v-4l-6-2-3 3h-2v-3l-2 1-2-3-1-1h-9l-2-2 22-1zm-8 13 6 2v6l2 1-1 3-1-1-1 2h-2v2l4-1-4 4h-2l1 6h-2l-1 4-13 8-4 2v-2l-7 2-3-2-2 3-3-5 1-6h2l1 3 4-5-2-1h6l-1-4 6-5v3h3l-1-5-2-2 5-1 4 1 2-5h2v2l4 1v-2h-2l1-3h2v-3l-3 1z" fill="#5F7245"/>
<path transform="translate(267,802)" d="m0 0h3l4 6 7 5 20 6 4 3v6l-5 4-4 1h-7l-10-3-7-5-8 11-3-1 1-8 2-6-1-9 5-2z" fill="#D6D3BD"/>
<path transform="translate(651,482)" d="m0 0h7l4 3 24-1-2 2 1 2-8 2-5 2h-6l-2 2-6 1v1l-15 3h-11l-3 1h-12l-4-2h-7l2-2 10-3 6-2 1-2-2-1 9-1v-2l9-2z" fill="#C4CEAE"/>
<path transform="translate(212,787)" d="m0 0h33l1 4h4l1-4 2 5 1 1-1 8-4 8-7 1v8h-1v-17l-4 2h-25z" fill="#D6D3BD"/>
<path transform="translate(720,801)" d="m0 0 3 1 4 6 8 5 19 5 5 5-1 6-3 3-4 1h-9l-11-4-6-5-2 5-1 2h-2l1-6-1-2v-6l2-10v-3h-2v2h-2z" fill="#D6D3BC"/>
<path transform="translate(665,344)" d="m0 0 2 1-4 8-7 8-10 6-16 8-12 5h-16l-9-3 1-2h7v-2l15-3 19-7 6-4h2v-2l12-6 5-4h2v-2z" fill="#363A1F"/>
<path transform="translate(508,144)" d="m0 0h33v4l-9 2-18 2-14 4-13 8-9 8-8 11-2 4v-9l5-10 9-10 3-1v-2l14-8z" fill="#F6F6EB"/>
<path transform="translate(570,387)" d="m0 0h3l1 4-3-1v4h2l2 6h-2l-1 5 1 1 1-2 8 2 1 3 2-2 2 4v3h-2v2h-2v4l-2 1 1 7-2 1-1-3h-3l1 5-3-1-2 2-1-3-2-2 2-5h2l-3-6 1-3v-1l-2 1-1 3h-2l1 6-2-2-1 5-2 2v-6l-2-1v-2h-2l-1-6h2l2-3v-2l-2-3-2 2-1-3 1-5h2l2-2 1 6 4 1-1-4 3 1h1l2-1 1-3-5 1-1-1-1 2-1-4 2-2 2 1 1-4z" fill="#607545"/>
<path transform="translate(285,862)" d="m0 0h8l2 1 1 7-5 6v9l4 5 2 1-1 2h-8l-5-8v-4h2v-6l-1-4-11-1-1 22-4 1h-10l-1-1v-7l8-3 2-2v-5l-3-4 1-3h2l3-3 13-2z" fill="#D8D5BF"/>
<path transform="translate(571,411)" d="m0 0h2l-1 3v3l1 5-2 1v5l5 2-1-5h3l3 2-1-6 3 1 1 4 3 1 3-3 1 2 2-1 2-4v5l4-1-1 3-13 6-18 5-7 1h-12l2-4 4-1 2 2 1-4-2-3-4 1-2-1 1-2h2l1-3h3l2-5 3 2 1-3 1 6 2-6 1-1v-2h2l1-4z" fill="#627846"/>
<path transform="translate(283,393)" d="m0 0 5 2 9 8 2 1v2h-3l7 8 5 5 10 8 3 4v3h2l4 11 5 5v2l-4-2-11-9-10-10v-2h-2l-9-11-8-10-7-11z" fill="#879D72"/>
<path transform="translate(187,392)" d="m0 0h5l-2 4 5 2-2-3v-3h23l3 1 2 3-1 3v-2h-2l1 4-1 3-9 3-3-3v2h2v4l-9 1-8 1h-4l-1-6v-12z" fill="#EDEBDC"/>
<path transform="translate(522,165)" d="m0 0 2 1-3 5-17 17-9 11-5 7h-2l-1 4-4 4-3 5-5 4h-5l-1-3 5-5 4-7 8-12 7-8 13-13 4-3h2v-2z" fill="#D7D5BE"/>
<path transform="translate(796,705)" d="m0 0 3 1v12l3 4h7l-3 6-10 4h-15l-11-4-3-5 8-3 1-6-5-1-1-4h6l2 1v2h3v9l4-2 1-2 4 1 3 2z" fill="#BBB99D"/>
<path transform="translate(398,202)" d="m0 0 6 1 9 6 12 11 11 13 3 6-4 6-4-2-8-11-15-15-8-7-4-3 1-4z" fill="#D8D5BF"/>
<path transform="translate(494,184)" d="m0 0 2 1-9 11-8 12-4 7-4 5-3 1-1-2-1-11v-15l3-1 1-5 1 3 13-1z" fill="#8BA076"/>
<path transform="translate(230,558)" d="m0 0h48v2h11v1l-9 1-25 1-8 2-7-1-3-2-4 2h-3l-2 10v7l-2 2-12-21 1-2z" fill="#F3F3E7"/>
<path transform="translate(438,737)" d="m0 0 7 1 10 2h15l11 2v2l5 1 4 2-2 1v2l-6 1-16-2h-12l-4 1-15-3-1-7 4-2z" fill="#555D3D"/>
<path transform="translate(312,865)" d="m0 0 4 1v2h9l1 2 1 23-1 1h-7l-1-5 2-3 1-16h-4v15l-1 1h-6l2 6-4 2h-7v-3l5-6 1-7-2-4v-4h2l2-4z" fill="#D2D0B8"/>
<path transform="translate(212,816)" d="m0 0h26l1 2-13 1 1 4h11l5 2 3 5v2h-34z" fill="#CECDB5"/>
<path transform="translate(356,792)" d="m0 0h1v49l-4 1-2-2-5-4-3-5-3-2v-15l11 1 3-1 1-5z" fill="#DAD5C0"/>
<path transform="translate(402,178)" d="m0 0 10 1 9 3 12 6 13 12 6 9-1 4-9-7-8-7-11-7-11-5v-2l-12-2 1-4z" fill="#F5F6EA"/>
<path transform="translate(575,906)" d="m0 0h15l7 10 2 5v10l-2-1v-6l-10 1-7 5h-3v-10l2-4-5-3v-6z" fill="#586340"/>
<path transform="translate(773,803)" d="m0 0 8 1 2 4v7l5 4v11l-2 2-7 1-2 4-5 1-5 5-4 1 5-5 5-9v-11l-3-5 1-4 1 3 2-1-1-4z" fill="#D8D4BF"/>
<path transform="translate(231,868)" d="m0 0h3l18 1 1 2v21h-11l-11-22z" fill="#D9D5C0"/>
<path transform="translate(279,474)" d="m0 0h9l5 4 1 2v8l-4 6-3 2h-7l-5-4-2-4v-8l4-5z" fill="#FCFCF2"/>
<path transform="translate(548,272)" d="m0 0 2 1-7 7-1 7h-2v2l-5 2-2 4-5 1-2 9-9 12-6 1v2l-4 1-6 10-6 11-1-3 6-11 12-20 14-15 4-5 8-7z" fill="#C7CFB0"/>
<path transform="translate(803,709)" d="m0 0h9l2 2v6l-2 9-8 7-8 3-10 1-12-3-8-4-6-7-2-5 1-4 2 3 6 8 8 4 6 2h15l10-4 2-5v-2l-5-2-2-3 1-5z" fill="#3C4125"/>
<path transform="translate(599,381)" d="m0 0h8l3 1 1 3 2-1-1 4h2l2-4 4 1 3 2v4l-6-1 2 1v3l-3 3h2v2l-4-1v-2h-2l-2 5-6 1v-2l-3 1v-4h-5l-1-7-1-4 2-2v-2z" fill="#667C4A"/>
<path transform="translate(643,869)" d="m0 0 7 1 5 5v5h11l-1 4h-10l-3 5-4 3-5-1-5-4-1-8 4-8z" fill="#272C19"/>
<path transform="translate(434,445)" d="m0 0 4 4 11 17 8 15-2 1h-8l-4-8-10-13-3-6-1-6z" fill="#C4BEA4"/>
<path transform="translate(772,867)" d="m0 0h5l-1 26-2 1-28-1 1-8 4-12 4-4 4 1v2h-2l-2 4v9l6 5h5l6-8-1-6-5-5-2-1 1-2z" fill="#D4D2BC"/>
<path transform="translate(260,302)" d="m0 0 25 1 2 2 1 7 2 4 3 1 4 5v2l5 1 2 3-6-2-14-6v2l-4-2-8-7-10-9z" fill="#C6CFAF"/>
<path transform="translate(464,547)" d="m0 0h3v5h7l1 3-36 17-3-1 1-7 3-3 11-3 4-6 7-2v-2z" fill="#B8D3AE"/>
<path transform="translate(562,869)" d="m0 0 12 1 5 6v8l-5 5-7 2h-7l1-4z" fill="#1F2413"/>
<path transform="translate(718,380)" d="m0 0h5l2 18 2 6-2 5-3 11-4-1v2h-2v-40z" fill="#535B3B"/>
<path transform="translate(667,869)" d="m0 0 10 1 5 4 2 4-1 7-6 6h-10z" fill="#262B18"/>
<path transform="translate(295,870)" d="m0 0h7l5 5 1 8-4 6-3 3-6-1-5-6v-9z" fill="#232815"/>
<path transform="translate(760,870)" d="m0 0h6l5 4 2 4-1 6-6 7-7-1-5-5v-9l5-5z" fill="#212514"/>
<path transform="translate(426,777)" d="m0 0h2l-1 2zm-1 1m-1 1m-5 0 5 1 1 3h-3l1 6 1 4-8 15-2 3-2-1v-2h-4v-10l3-5 1-7 4-3 1-3z" fill="#D7D3BD"/>
<path transform="translate(392,415)" d="m0 0 6 2 10 12v1l-14 1h-12l-28-2v-1h29l2-6 4-4h3z" fill="#647A48"/>
<path transform="translate(728,869)" d="m0 0 4 2 3 9 3-10h3l3 10h2l2-10 4-1-1 8-5 15-3-1-4-10-3 10h-3l-2-2-3-11z" fill="#202413"/>
<path transform="translate(683,560)" d="m0 0h6l5 3 1 2v8l-4 5-2 1h-6l-5-4-1-2v-6z" fill="#35391E"/>
<path transform="translate(403,905)" d="m0 0 5 3 7 8 2 1v-12l4 1v22l-4 1-9-12-1 13-4-2z" fill="#353C25"/>
<path transform="translate(650,640)" d="m0 0 7 1 5 6-1 7-5 4h-8l-5-5v-6l5-6z" fill="#35391E"/>
<path transform="translate(619,906)" d="m0 0h14l-1 5h-8v4h7l1 5h-7v4h9l1 5h-16z" fill="#3B4025"/>
<path transform="translate(514,904)" d="m0 0 3 4 6 13 1 9h-3l-5-6-5 1-3 5-3 1v-10z" fill="#202414"/>
<path transform="translate(723,414)" d="m0 0h1v20l-1 15-2 3-8 1 2-1 1-31h2v-2l4-1z" fill="#969977"/>
<path transform="translate(307,603)" d="m0 0 10 2 2 1-1 3-9 7-10 8-1-2-1-6-1-10 4-2z" fill="#8CA076"/>
<path transform="translate(392,869)" d="m0 0 4 2 3 5 4-2 4-5 3 1v21h-4l-1-10-1 3h-6l-3-5-1 12h-3v-19z" fill="#262B18"/>
<path transform="translate(768,529)" d="m0 0h42l17 2 1 3-2 4v-4l-22-1-35 1h-16v-1l11-1-17-1v-1z" fill="#C9CAB1"/>
<path transform="translate(788,346)" d="m0 0 11 1v5l-10 1v39h-4l-2-4 1-1v-12l2-6 1-12-4-2-2-2 1-5z" fill="#ADBA96"/>
<path transform="translate(520,869)" d="m0 0 5 1v10l-1 12h-3l-9-12-2 13-3-1v-22l5 2 7 8z" fill="#222614"/>
<path transform="translate(272,869)" d="m0 0 10 1 3 3 1 6-1 2h-2l3 8v3l-4-2-3-5-2-1-1 5-2 3h-2z" fill="#202413"/>
<path transform="translate(776,869)" d="m0 0 9 1 5 5-1 5-3 1 5 9v2l-5-1-3-6h-2l-2 7h-3z" fill="#353927"/>
<path transform="translate(507,425)" d="m0 0 1 4v2l5 1 2 3 5-3v2l4-3v2l8 1-2 4-2 2h-36v-1l7-1z" fill="#6A814F"/>
<path transform="translate(484,869)" d="m0 0 5 1 2 4-8 1-1 1v8l5 1 1-3-4 2v-5h7l2 1v7l-3 4h-8l-6-4-1-2v-8l6-7z" fill="#212514"/>
<path transform="translate(375,176)" d="m0 0h29l12 3-4 1-10-1-2 4h-22l-10-2 1-4z" fill="#D4D2BB"/>
<path transform="translate(435,869)" d="m0 0 4 1 8 10 1-11h4v13l-1 8h-3v-2l-4-2-4-6-2 12h-3z" fill="#262A17"/>
<path transform="translate(538,906)" d="m0 0h14v5h-11v4h10v4h-9l-1 5h11l1 5h-15z" fill="#252A17"/>
<path transform="translate(442,906)" d="m0 0 3 1 6 12 2 5v6l-3 1-3-6h-6l-2 5-4-1 1-7 4-10z" fill="#262B1A"/>
<path transform="translate(562,905)" d="m0 0 6 1 1 4-1 1h-6l1 3 7 6v5l-6 5h-5l-3-3v-4l8-1-8-6 1-7 2-3z" fill="#282D1A"/>
<path transform="translate(538,869)" d="m0 0h5l2 4-8 2-1 2v7l2 2 5 1v-3l-3-1 1-4 5 1 3 3-1 6-2 2h-8l-7-4-2-4v-6l7-7z" fill="#373B20"/>
<path transform="translate(588,868)" d="m0 0 3 1 7 15v8l-4-2-3-4-5 2-5 5-1-3 7-20z" fill="#343925"/>
<path transform="translate(283,393)" d="m0 0 5 2 9 8 2 1v2h-3l7 8 2 3-5 1-6-2-10-14-3-5z" fill="#5E7044"/>
<path transform="translate(693,869)" d="m0 0h2l8 14 1 8-3 1-3-5h-7l-2 5h-3v-8l3-5z" fill="#2B301D"/>
<path transform="translate(290,787)" d="m0 0h9l9 4 2 2 1 13 5 4 2-3h2l1 4-3 1 2 5-7-6-8-5-15-5-1-3 5 1 4 1 5-2v-7l-6-1-5-1-3-1z" fill="#D4D1BA"/>
<path transform="translate(333,869)" d="m0 0h7l-1 5h-9v4h8v4h-7v4l9 1v5l-13-1-1-3v-18z" fill="#35391F"/>
<path transform="translate(552,910)" d="m0 0h3 1v6l4 2 5 5h-9v6l-3 1-1-5-11-1 1-5h9v-4h-10v-4z" fill="#F6F6EA"/>
<path transform="translate(360,434)" d="m0 0h3v2h6l2 3 9 1 16-2 14-3 1 2-15 4h-4l1 4 2-1v2l4 2-3 4-2-4-2 1-1-8-9 1-2 3-2-1-2 4v-3l-12-2 3-2-19-2-2-2h8z" fill="#5B6941"/>
<path transform="translate(421,869)" d="m0 0 3 1 3 5 4 11v6h-4l-2-5h-7l-2 5-3-1 1-6z" fill="#2E3320"/>
<path transform="translate(552,371)" d="m0 0h12l2 1 10 1 25 1v1l-7 1 8 3v1l-7 1-16-2-15-2-8-3z" fill="#56603E"/>
<path transform="translate(420,476)" d="m0 0 1 2 6-2 3 1 2 4-1 4h-3l-2 2h-9l-21-3 1-3h2l1-2 2 1v2h2l1-3h3l2 3 4 1 2-6h3z" fill="#5E7144"/>
<path transform="translate(487,906)" d="m0 0h13l1 4-2 2-8-1v5h9l-1 3h-9v6h11l-1 4h-13z" fill="#1C2010"/>
<path transform="translate(447,739)" d="m0 0 8 1h15l11 2v2l5 1 4 2v1h-14l-26-3z" fill="#637A47"/>
<path transform="translate(230,869)" d="m0 0 3 3 7 14 1 5-5-1-1-3h-8l-1 4-4 1-1-4z" fill="#2C311E"/>
<path transform="translate(792,867)" d="m0 0h2v25l-4 2h-10v-9h4l3 6 4 1-5-8v-3l3-2-1-6-3-2 1-3z" fill="#D6D4BE"/>
<path transform="translate(434,796)" d="m0 0h2l4 9 5 10v2h-18l3-9z" fill="#C4BEA6"/>
<path transform="translate(419,466)" d="m0 0 3 3v2h2v2l2 1-2 5-4-2-7 7-4-2-3-2v-4l-2 2-3-6v-3l2-2 2 5h3l2-2h2l2 3 4-2-1-3h2z" fill="#627846"/>
<path transform="translate(463,869)" d="m0 0h2l6 12 2 7v4l-4-1-2-4-7-1v4h-6l2-5z" fill="#2E331F"/>
<path transform="translate(794,869)" d="m0 0h3l2 7 5-5 3-2h3l-2 4-3 4 1 5 5 8v2h-4l-7-9-2 9h-3z" fill="#262B17"/>
<path transform="translate(539,428)" d="m0 0 3 1-2 1 1 2 10-2 4-1 1 3 2 1-2 5-4-2h-2l-1 3-1 1 3 1h-35v-1l20-1 1-3-2-1h2l1-4z" fill="#5E7044"/>
<path transform="translate(466,906)" d="m0 0h17v6h-5l-1 18-5-1v-17h-6z" fill="#1D2111"/>
<path transform="translate(810,868)" d="m0 0h2v2h2v2h2l1 3v7l-3 8-2 2-8-11 1-5 4-5z" fill="#D8D5C0"/>
<path transform="translate(590,908)" d="m0 0 4 4 4 7 1 2v10l-2-1v-6l-10 1-7 5h-3v-5l2-1v-2l4-1 3-3 5-1v-3l-5 2z" fill="#34381F"/>
<path transform="translate(351,869)" d="m0 0h6l2 2v4h-10v8l2 2h8l-1 5-2 2h-5l-7-6-1-2v-7l5-6z" fill="#212514"/>
<path transform="translate(430,187)" d="m0 0 5 3 10 9 7 10-1 4-9-7-8-7-7-5 3-1z" fill="#CFD0B7"/>
<path transform="translate(331,875)" d="m0 0h10l2 1 2 10 7 6-3 2h-9v-7l-9-1v-4h7v-4h-7z" fill="#D3D1BA"/>
<path transform="translate(762,260)" d="m0 0 8 1 2 2-1 6-1 2h-14l-2-1-1-8z" fill="#91A37B"/>
<path transform="translate(772,867)" d="m0 0h5l-1 26-2 1-11-1 5-5 4-6-1-6-5-5-2-1 1-2z" fill="#D9D6C1"/>
<path transform="translate(618,181)" d="m0 0h9l4 3-1 6-3 4h-8l-4-4v-6z" fill="#627349"/>
<path transform="translate(803,709)" d="m0 0h9l2 2v6l-2 9-8 7-1-2-2-1 5-3 2-5v-2l-5-2-2-3 1-5z" fill="#414629"/>
<path transform="translate(590,181)" d="m0 0h7l5 4v5h-2l-2 4h-8l-4-4 1-7z" fill="#889D72"/>
<path transform="translate(619,155)" d="m0 0h7l4 3v6l-4 3h-10l-2-3v-6z" fill="#849A6F"/>
<path transform="translate(571,411)" d="m0 0h2l-1 3v3l1 5-2 1v5l6 3-3 2h-4l-1-1v2l2 1h-3v-2h-2l-1-3-3 1-3-6-1 2-2-4 3-3 2 2 1-3 1 6 2-6 1-1v-2h2l1-4z" fill="#687E4D"/>
<path transform="translate(578,892)" d="m0 0h2l6 8 2 5 2 1-1 1-14-1-4-5 1-5 4-1v-2z" fill="#C0BCA1"/>
<path transform="translate(735,314)" d="m0 0 10 1 2 5-5 5h-9l-4-3v-6z" fill="#8CA177"/>
<path transform="translate(646,181)" d="m0 0h7l6 4-1 6-2 2h-9l-5-4 1-5z" fill="#91A279"/>
<path transform="translate(386,905)" d="m0 0h7l-1 23-4-1-4-6v-13z" fill="#DBD7C2"/>
<path transform="translate(674,335)" d="m0 0h2l1 4-9 20-1-3-6 2-3 3-2-1 7-8 3-7v-3z" fill="#5E7044"/>
<path transform="translate(754,286)" d="m0 0h10l3 3-1 7-5 2h-6l-4-4v-5z" fill="#93A47C"/>
<path transform="translate(530,193)" d="m0 0 2 1-6 5h-2l-1 3-8 4h-3v2l-13 1-10 3-2-4 1-2 18-2 13-5z" fill="#4F5637"/>
<path transform="translate(598,906)" d="m0 0h17v5h-5v18h-4l-1-18h-5l-3-4z" fill="#2E321A"/>
<path transform="translate(589,155)" d="m0 0h8l3 1 1 2v6l-3 3h-9l-3-3v-6z" fill="#83986D"/>
<path transform="translate(780,706)" d="m0 0 4 1 2 5 3-1 3-5 4 1-2 13h-3l-5-3-2 4h-3z" fill="#34381F"/>
<path transform="translate(477,541)" d="m0 0 4 1 2 3-1 5-3 3-5 1v-2l-8 1 1-6-3-1z" fill="#C4CEAE"/>
<path transform="translate(728,260)" d="m0 0h9l5 2v7l-3 2h-8l-5-3v-6z" fill="#90A27A"/>
<path transform="translate(399,904)" d="m0 0 4 1v24l-5 2-1-1v-25z" fill="#D9D4BF"/>
<path transform="translate(648,155)" d="m0 0 7 1 2 4-1 5-4 2h-7l-4-4 1-6z" fill="#8CA177"/>
<path transform="translate(325,867)" d="m0 0m-4 1h4l1 2 1 23-1 1h-7l-1-5 2-3z" fill="#D8D4BF"/>
<path transform="translate(665,816)" d="m0 0h12v2l4 2-4 9h-5l-3-6-2-3 6-2-7-1v14h23v1h-24z" fill="#B9B599"/>
<path transform="translate(253,870)" d="m0 0h11l4 5v5l-5 4-6 1v6h-3l1-10 2-2v2l5-1v-6h-7l-2 1z" fill="#212614"/>
<path transform="translate(599,868)" d="m0 0 4 1 4 7v2h2l2-9 4-1-1 7-4 8-1 8-3 1-1-10-5-8z" fill="#1F2312"/>
<path transform="translate(429,226)" d="m0 0 5 5 5 8-4 6-4-2-8-11 1-3 5-1z" fill="#C4BDA4"/>
<path transform="translate(193,392)" d="m0 0h19l1 4-2-1-1 2-6 1v2h-2l1 3h-2v-2h-2v2l-2 1v4l-3-1-1-6 1-4-1-2z" fill="#E1DECB"/>
<path transform="translate(448,375)" d="m0 0 3 2 5 1 1-2 5 11v13l-2 2-5-13-6-11z" fill="#D2D2BA"/>
<path transform="translate(363,869)" d="m0 0h15v5l-5-1v17l-2 1-2-1v-16h-6z" fill="#272C18"/>
<path transform="translate(586,411)" d="m0 0 1 3h-2v2h-2v4l-2 1 1 7-2 1-1-3h-3l1 5-3-1-2 2-1-3-2-2 2-5h2l-1-5h2l-1-4 3 2v3h2v-2l7-4z" fill="#607345"/>
<path transform="translate(580,421)" d="m0 0 3 1 1 4 3 1 3-3 1 2 2-1 2-4v5l4-1-1 3-13 6h-7v-2l7-1v-2l-4 2-5-1-1-5h3l3 2z" fill="#637947"/>
<path transform="translate(729,286)" d="m0 0h7l4 2-1 7-3 2h-6l-5-4 1-5z" fill="#8FA379"/>
<path transform="translate(187,392)" d="m0 0h5l-2 4 3 1 2 4h-2v2l2 1v5l-3 3h-5l-1-6v-12z" fill="#EAE9D9"/>
<path transform="translate(724,398)" d="m0 0 3 4-4 16-2 2-3-1v2h-2l1-21 4 2 2 3z" fill="#65784B"/>
<path transform="translate(622,869)" d="m0 0h16l-1 5h-5l-1 18h-4v-18l-5-2z" fill="#202414"/>
<path transform="translate(628,804)" d="m0 0h2v22l2 13 6 5v4l-8 1-4-2h3l-1-3z" fill="#D8D4BE"/>
<path transform="translate(295,642)" d="m0 0 2 1-2 3 6 4h7l-1 3-4 2-13-1h-2v2l2 1-1 2 2 1-4-1-3-3 2-4 3-4h2l2-4z" fill="#B7CFAB"/>
<path transform="translate(769,705)" d="m0 0h6l3 2v2h-8l1 4h5l1 5-4 4-4 1-6-5 2-1 8 2v-4l-6-1-3-3 2-4z" fill="#383E24"/>
<path transform="translate(616,286)" d="m0 0 2 1-10 9-4 3h-2v2l-12 9-32 32v-3l33-33 14-11z" fill="#CCD3B8"/>
<path transform="translate(702,869)" d="m0 0 4 1 5 6 5-7h3l-1 5-5 10-1 7-2-1-2-9-6-10z" fill="#202413"/>
<path transform="translate(728,869)" d="m0 0 4 2 3 9 1-2h4l-3 10-2 4-4-3-3-11z" fill="#232816"/>
<path transform="translate(474,437)" d="m0 0h10l10 3-4 3-6 3-9-1z" fill="#1A1E0F"/>
<path transform="translate(394,334)" d="m0 0 7 1 10 6-1 3-7 1-6-1-3 1z" fill="#C0CAA9"/>
<path transform="translate(441,924)" d="m0 0h6l3 5v2l2 1-4 3h-9l-3-3v-2h3l1-5z" fill="#DAD8C3"/>
<path transform="translate(483,213)" d="m0 0 1 4v2l2 1 17 1-1 3-5 1h-14l-8-2 3-4h2l2-5z" fill="#6A7F4E"/>
<path transform="translate(417,905)" d="m0 0 4 1v22l-4 1-4-5 2-6h2z" fill="#1C2010"/>
<path transform="translate(666,248)" d="m0 0 5 1-3 6-7 6 2-5-10 4-13 10-4 1 5-5 10-8 6-3 4-3h3v-2h2z" fill="#C4D2B2"/>
<path transform="translate(718,360)" d="m0 0 9 1 4 2-1 5-10-2h-7l-4 1-2-3 5-3z" fill="#BED3B1"/>
<path transform="translate(482,202)" d="m0 0h1v12l-3 5-5 4h-5l-1-3 5-5 4-7z" fill="#C4C7AA"/>
<path transform="translate(317,870)" d="m0 0h4v16l-4 6-5-1-2-5 6-1z" fill="#202412"/>
<path transform="translate(766,703)" d="m0 0v3l-1 5 5 3 3 1v4l-9-1 5 5v3l-4-2-5-7 1-7z" fill="#AAB391"/>
<path transform="translate(392,907)" d="m0 0h5v21l-3 1-2-1z" fill="#32361E"/>
<path transform="translate(781,287)" d="m0 0h6l3 2-1 7-6 2-4-2-2-6 1-2z" fill="#8DA177"/>
<path transform="translate(454,748)" d="m0 0h12l16 2 4 3 5 1v1l-13-1-12-2-13-2z" fill="#41462A"/>
<path transform="translate(491,872)" d="m0 0 1 2h2l1 8-1-2-10-1v5l4-3 2 1-3 4-5-1-1-1v-8l2-2h8z" fill="#ECECDD"/>
<path transform="translate(289,877)" d="m0 0h1l2 10 5 4-1 2h-8l-5-8v-4h2l1-2h2z" fill="#D0CFB8"/>
<path transform="translate(297,874)" d="m0 0 4 1 3 4-2 6-3 2-4-1-1-1v-8z" fill="#CFCFB7"/>
<path transform="translate(595,384)" d="m0 0h3l5 1v6l3 5-4 3-1-2h-5l-1-7-1-4z" fill="#6B8150"/>
<path transform="translate(525,402)" d="m0 0 8 2-2 2-5-1-1 4 1 2-2 2v2l-6 3-4 1-1-2 1-2h2l2-5 1-2h2l1-4z" fill="#4D5535"/>
<path transform="translate(523,431)" d="m0 0 1 2 8 1-2 4-2 2h-11v-3l-2 1 1-4 4-2v2z" fill="#677D4B"/>
<path transform="translate(671,874)" d="m0 0 6 1 3 4-1 5-4 3h-4z" fill="#CFCEB6"/>
<path transform="translate(645,874)" d="m0 0 5 1 1 1-1 9-2 2-4-1-2-2v-7z" fill="#D1D0B8"/>
<path transform="translate(761,874)" d="m0 0 5 1 1 1v8l-3 3-5-2-1-7z" fill="#D1D0B8"/>
<path transform="translate(484,768)" d="m0 0h8v2h2v2l2 2-11 1 3 4-1 3-3-4v-2l-4-1v-5z" fill="#D6D3BD"/>
<path transform="translate(357,607)" d="m0 0 2 2h-2l1 5v1l3 1-12 8-4-2v2l-2-1 2-3h3l2-4h2l1-5z" fill="#B9D3AF"/>
<path transform="translate(587,924)" d="m0 0h9v7l-15 1-1-3z" fill="#DBD9C4"/>
<path transform="translate(575,906)" d="m0 0h15v2h-2l-1 3-6 3h-6l-1-1v-6z" fill="#2B2E19"/>
<path transform="translate(803,705)" d="m0 0 6 1 1 2-7 2-1 5 4 4 2 1-1 3h-5l-4-5v-7l3-5z" fill="#232714"/>
<path transform="translate(381,664)" d="m0 0 2 1-1 8 5 1 2 2-16-1-3-2 8-7z" fill="#D8D6C0"/>
<path transform="translate(630,777)" d="m0 0 1 2-1 4-2 57h-1v-58l1-4z" fill="#AEB494"/>
<path transform="translate(807,722)" d="m0 0 2 1-3 5-10 4h-15v-2l12-2 4-2 7-1v-2z" fill="#AAB793"/>
<path transform="translate(295,870)" d="m0 0h7l4 4h-3l-7 2-2 3v8h-3l-1-2v-9z" fill="#212513"/>
<path transform="translate(464,753)" d="m0 0h14l28 3v1h-32l-5-1v-1l-5-1z" fill="#D3D0BA"/>
<path transform="translate(360,434)" d="m0 0h3v2h6l2 3 8 1v1h-12l-19-2-2-2h8z" fill="#555D3D"/>
<path transform="translate(551,372)" d="m0 0h3v2h-2v2l5 1 2 6 2 2v3l-5 3-3-1v-2h2v-5l-3-1-3-3-2-1 1-3 1 1zm-5 6 2 2h-2z" fill="#617646"/>
<path transform="translate(497,421)" d="m0 0 1 2-5 9v5h7l-1 2h-11l-7-2 4-2 5-5z" fill="#BFCDAB"/>
<path transform="translate(227,886)" d="m0 0h8l2 4v3l-2 1h-9l-5-1 2-2h3z" fill="#D5D3BC"/>
<path transform="translate(588,872)" d="m0 0h1v12l3 1-6 3-5 5-1-3 6-16z" fill="#232714"/>
<path transform="translate(566,874)" d="m0 0 5 1 3 4-1 5-3 2h-5v-7z" fill="#E9EBDB"/>
<path transform="translate(537,874)" d="m0 0h9l-4 4-1 5 2 1v3h-5l-3-3v-7z" fill="#EFF1E3"/>
<path transform="translate(466,906)" d="m0 0h17v6h-6v-2l-9 1-2-1z" fill="#32371E"/>
<path transform="translate(570,870)" d="m0 0 5 1 4 5v8h-3l-1-2 1-3h-3l-3-4-4-1-1-3z" fill="#34381F"/>
<path transform="translate(792,867)" d="m0 0h2v19l-4-5-2-8-3-2 1-3z" fill="#DEDBC8"/>
<path transform="translate(796,705)" d="m0 0 3 1v12l5 5v2l-5 1-4-3v-13z" fill="#D7D5BF"/>
<path transform="translate(570,387)" d="m0 0h3l1 4-3-1v4h2l2 6h-2v4l-5 1-3-6 3 1h1l2-1 1-3-5 1-1-1-1 2-1-4 2-2 2 1 1-4z" fill="#627846"/>
<path transform="translate(531,425)" d="m0 0 2 1-2 3h2l1-2 5 1-1 4-1 8h-9l3-4-1-6-1-3z" fill="#637947"/>
<path transform="translate(560,409)" d="m0 0 2 1v2h2l1-2 1 5 1 7-2-2-1 5-2 2v-6l-2-1v-2h-2l-1-6h2z" fill="#617546"/>
<path transform="translate(560,396)" d="m0 0 2 2v4l4 1 2 4h-2l-1-1 3 6v4l-4-2 2-1-1-2-3 1-1-5-2-3-2 2-1-3 1-5h2z" fill="#637947"/>
<path transform="translate(545,414)" d="m0 0 6 1 4 2-1 4-5-2-2-1 1 4h2v2h-2l-1 2-5-3v-2l-2-1v-3l4 1z" fill="#627746"/>
<path transform="translate(541,879)" d="m0 0 5 1 3 3-1 6-2 2h-5l-1-2-3-2h6v-3l-3-1z" fill="#202413"/>
<path transform="translate(825,808)" d="m0 0h2l1 27v5l2 5-5-5z" fill="#CAC8AF"/>
<path transform="translate(212,787)" d="m0 0h28v1l-13 1-2 6h-5l-2-6-5-1-1 4z" fill="#ADAF90"/>
<path transform="translate(704,875)" d="m0 0 4 4 1 2v10h-4l-4-9 1-3 2-1z" fill="#D4D2BB"/>
<path transform="translate(254,871)" d="m0 0 1 3h7l1 4-3 3h-4l-2 9h-1v-15z" fill="#33361C"/>
<path transform="translate(799,364)" d="m0 0h1l1 16h6l1 3-8 6h-2z" fill="#BDCAA8"/>
<path transform="translate(739,880)" d="m0 0 2 3 3 10-2 1h-7l-2-2 2-1 3-10z" fill="#D4D3BC"/>
<path transform="translate(391,872)" d="m0 0 4 1 5 6v2l-4 1-1-3-1 12h-3z" fill="#32351C"/>
<path transform="translate(787,369)" d="m0 0h1v24l-3-1-2-4 1-1v-12z" fill="#C2CBAA"/>
<path transform="translate(772,867)" d="m0 0h5l-1 11h-4l-4-6-4-2 1-2z" fill="#D4D1BB"/>
<path transform="translate(520,869)" d="m0 0 5 1v10l-3 1 1 8h-2l-2-8z" fill="#40482D"/>
<path transform="translate(743,315)" d="m0 0 3 1 1 4-5 5h-9l-4-3 1-2 2 1 4-2 8 2z" fill="#C8C0A8"/>
<path transform="translate(691,886)" d="m0 0h7l4 6-4 2-8-1v-6z" fill="#D8D4BE"/>
<path transform="translate(799,882)" d="m0 0 8 8v2l2 1-11 1-1-2z" fill="#CECFB6"/>
<path transform="translate(571,411)" d="m0 0h2l-1 3v3l1 5-2 1v4h-2l-1-2-2 1-2-2v-5l2 1v-4h2l1-4z" fill="#667D4A"/>
<path transform="translate(825,787)" d="m0 0h13l3 2-14 1-1 18-2 4v-20z" fill="#B4BD9D"/>
<path transform="translate(521,424)" d="m0 0 6 4v3l-4 2-3 1h-2l-4 2v-5l4-2 1-3h2z" fill="#617646"/>
<path transform="translate(749,869)" d="m0 0h3l-1 8-3 8-4 2v-7h2l2-10z" fill="#2A2F1A"/>
<path transform="translate(500,205)" d="m0 0 8 1-2 2-12 2-5 2-2-4 1-2z" fill="#515939"/>
<path transform="translate(499,869)" d="m0 0 3 1v21l-3 1z" fill="#1F2312"/>
<path transform="translate(380,223)" d="m0 0 4 2 5 3v2l6 2 7 3 1 4-7-3-10-5-1-3-4-2z" fill="#3F4527"/>
<path transform="translate(448,831)" d="m0 0 4 1 3 6v7h-7l1-7 1-2h-2v-2h2v-2z" fill="#D0CDB6"/>
<path transform="translate(788,346)" d="m0 0 11 1v5h-7l-3-3-4 1-3 4-1-4 2-3z" fill="#C4BCA3"/>
<path transform="translate(624,924)" d="m0 0h10l1 5h-15v-2z" fill="#2B321C"/>
<path transform="translate(738,867)" d="m0 0h5l5 2-2 11h-2l-3-8v-2l-3-1z" fill="#CECDB5"/>
<path transform="translate(796,866)" d="m0 0h6l5 2v2l-8 7h-1l-1-9-2-1z" fill="#D6D4BE"/>
<path transform="translate(728,408)" d="m0 0 7 1 1 3h-2l-2 6-7 5v-3l5-4-2-4-3-2z" fill="#C5BFA6"/>
<path transform="translate(306,885)" d="m0 0h3l3 5v2l-4 2h-7v-3z" fill="#DCD9C5"/>
<path transform="translate(760,870)" d="m0 0m-1 1m-2 1 2 1v4 6l3 4-4 2-4-4v-9z" fill="#252916"/>
<path transform="translate(431,773)" d="m0 0 1 4-7 13h-3l-1-9 3 2 1-4 3-1z" fill="#CBC7AF"/>
<path transform="translate(803,709)" d="m0 0h9l2 3h-9v4h3v4l-5-2-2-3 1-5z" fill="#B9C0A1"/>
<path transform="translate(736,393)" d="m0 0 7 1-1 9-2 3-4-7v-3l-3-1z" fill="#BBD3AF"/>
<path transform="translate(433,233)" d="m0 0h3l3 6-4 6-4-2-2-4 3-4z" fill="#BEB89E"/>
<path transform="translate(619,155)" d="m0 0h7l4 3v6h-2l-2-5-2-1-7 2-1 4h-2v-6z" fill="#6C7953"/>
<path transform="translate(580,405)" d="m0 0 2 1 1 3 2-2 1 5-5 4h-3v2h-2v-3h2v-2h-2l2-4 1 3v-6z" fill="#627846"/>
<path transform="translate(578,873)" d="m0 0 3 4h2l2-3-1 8-3 7-4-1 1-4z" fill="#EEEDDF"/>
<path transform="translate(440,811)" d="m0 0h3l2 6h-18l1-4 9 1h3z" fill="#BAC0A2"/>
<path transform="translate(569,429)" d="m0 0 1 4 11-3 4-1v2l-5 2-2-1v2l3 1-12 3v-6l-2-1h2z" fill="#5E7044"/>
<path transform="translate(547,351)" d="m0 0 2 1-6 8-2 4-5 6-5 5-2 1 2-4 10-13z" fill="#D1D4BB"/>
<path transform="translate(380,440)" d="m0 0h11v1l-9 1-2 3-2-1-2 4v-3l-12-2v-1z" fill="#5D6D43"/>
<path transform="translate(582,499)" d="m0 0 4 1-5 3 1 2-6 5-2-1v-4l-3-2z" fill="#C4CEAE"/>
<path transform="translate(540,423)" d="m0 0h2v2l6 2 1 3-7 3-3-1 2-3-3-3z" fill="#637847"/>
<path transform="translate(578,336)" d="m0 0 2 1-6 7h-2l-2 4-5 5-4 5-3-1 6-7h2l2-4z" fill="#6C7E52"/>
<path transform="translate(588,908)" d="m0 0h2l-1 4-5 5-5 3-1-2 1-2-3-2 9-3z" fill="#8C9F76"/>
<path transform="translate(619,906)" d="m0 0h14l-1 5h-8l1-2-5-1-1 2z" fill="#292D18"/>
<path transform="translate(363,466)" d="m0 0 2 2 1-2h2l1 1 2-1-2 7-2 1-11-5 4-1z" fill="#5E7044"/>
<path transform="translate(538,869)" d="m0 0h5l2 4-8 2-3 3-2-4z" fill="#1A1E0F"/>
<path transform="translate(447,739)" d="m0 0 5 1 3 2 13 3v1h-12l-6-1z" fill="#5F7245"/>
<path transform="translate(289,649)" d="m0 0 4 2 8 2v1h-13v2l2 1-1 2 2 1-4-1-3-3 2-4z" fill="#BDCAA8"/>
<path transform="translate(402,467)" d="m0 0 2 2 2 3h2l2-2h2l1 4-6 3-1-1-2 2-3-6v-3z" fill="#607545"/>
<path transform="translate(630,358)" d="m0 0 11 1-3 3-5 3-6-1v-2h2z" fill="#647A48"/>
<path transform="translate(202,400)" d="m0 0h2l-1 5h-2l-2 6-4 1-2-2 4-2-1-4 3-1v-2h2z" fill="#F7F6EB"/>
<path transform="translate(474,215)" d="m0 0 6 2v2l-5 4h-5l-1-3z" fill="#C1C7A8"/>
<path transform="translate(404,913)" d="m0 0 2 1 1 3v13l-4-2z" fill="#1C2010"/>
<path transform="translate(329,885)" d="m0 0 11 2v5l-6-1-4-1v-2l-2-1z" fill="#242816"/>
<path transform="translate(774,714)" d="m0 0h3l-1 6-5 3-5-2-3-4 10 1z" fill="#2D321B"/>
<path transform="translate(541,911)" d="m0 0h11v8l-1-4h-10z" fill="#C5C7AC"/>
<path transform="translate(420,831)" d="m0 0h5l-5 9h-2l1 4-3 1v-6z" fill="#D0CFB7"/>
<path transform="translate(632,873)" d="m0 0h4l1 5v6l-5-1z" fill="#F5F7EB"/>
<path transform="translate(204,400)" d="m0 0 2 2v4h2v4l-8 1 1-6 2-1z" fill="#EBE9DA"/>
<path transform="translate(203,392)" d="m0 0h9l1 4-2-1-1 2-6 1-4-2v-2h3z" fill="#E2DFCD"/>
<path transform="translate(624,874)" d="m0 0h3v15l-3-3-6-1 2-2 4-1z" fill="#EFF1E3"/>
<path transform="translate(615,875)" d="m0 0 1 2h7l-4 2-6 5h-3l1-5z" fill="#F2F3E6"/>
<path transform="translate(405,427)" d="m0 0 3 3-14 1h-12l2-2 16-1 5 1z" fill="#596740"/>
<path transform="translate(209,399)" d="m0 0 1 3 5-2 3 1v3l-9 3-3-4 1-2h2z" fill="#E2DFCC"/>
<path transform="translate(619,878)" d="m0 0h5l1 4-5 2-5-1 2-4z" fill="#2B311D"/>
<path transform="translate(536,507)" d="m0 0h5v2l-3 3-12 1 4-4z" fill="#EDEEE0"/>
<path transform="translate(293,412)" d="m0 0h8l4 5-5 1-6-2z" fill="#627646"/>
<path transform="translate(600,405)" d="m0 0 1 3h3l1 4-6 1-1 2v-3h-3l2-4z" fill="#627746"/>
<path transform="translate(617,389)" d="m0 0 6 2v6l2 1-1 3v-2l-8-2 1-3h2v-3l-3 1z" fill="#617646"/>
<path transform="translate(656,256)" d="m0 0 3 1-10 6-11 8-2-1 15-12z" fill="#CBD3B7"/>
<path transform="translate(530,193)" d="m0 0 2 1-6 5-12 5h-2v-2l16-8z" fill="#3A3E23"/>
<path transform="translate(786,717)" d="m0 0 4 1 4 2v2l-4 2-5-1-4-2 4-2z" fill="#B1BC99"/>
<path transform="translate(283,393)" d="m0 0 5 2 3 4-2 1h-6l-2-5z" fill="#647B47"/>
<path transform="translate(690,223)" d="m0 0h9l1 1v5l-9 1h-10v-1l13-2 4-1v-2h-8z" fill="#CACEB3"/>
<path transform="translate(755,869)" d="m0 0 4 1v2h-2l-2 4-1 6-2-4-2-1 3-7z" fill="#CDCAB3"/>
<path transform="translate(612,396)" d="m0 0h2v2l6 1-2 4h-4v-2h-2l-2 4v-6z" fill="#627746"/>
<path transform="translate(331,875)" d="m0 0h10l2 1-2 6-2-1-1-2-7-1z" fill="#F8F7EC"/>
<path transform="translate(805,712)" d="m0 0h8l-1 6-4 2v-4h-3z" fill="#363A20"/>
<path transform="translate(761,702)" d="m0 0 2 1 3-1-2 5-5 8h-1v-7z" fill="#212513"/>
<path transform="translate(293,879)" d="m0 0h1l2 7h5l-1 4 1 2-6-1-3-4 1-1z" fill="#383C21"/>
<path transform="translate(318,781)" d="m0 0h2l-1 6h-3v2h-2l-1 4-2 1 1-6z" fill="#D1CFB8"/>
<path transform="translate(312,604)" d="m0 0 7 2-1 3-4 3-3-1 1-4-2-1z" fill="#9FA684"/>
<path transform="translate(552,425)" d="m0 0h5l2 3 1 4h-4l-1-2-4 1-2-1 1-2h2z" fill="#647A49"/>
<path transform="translate(563,403)" d="m0 0 3 2v2h2v-2l3-1 1 3-2 1h3v3l-5 2-5-8z" fill="#5F7245"/>
<path transform="translate(408,876)" d="m0 0 2 4v11l-3 1v-13z" fill="#1D2111"/>
<path transform="translate(338,879)" d="m0 0 2 2v5h-9v-4h7z" fill="#E3E1CE"/>
<path transform="translate(535,877)" d="m0 0 3 2 1 3 4 2v3h-5l-3-3z" fill="#D6D6BF"/>
<path transform="translate(729,261)" d="m0 0h12l1 1v7l-1 1h-7l4-3h2l-2-4-9-1z" fill="#64754A"/>
<path transform="translate(639,884)" d="m0 0 4 2 5 2 2 1v2l-6 1-5-5z" fill="#383B20"/>
<path transform="translate(656,880)" d="m0 0h10l-1 4h-8l-2-3z" fill="#2B311E"/>
<path transform="translate(708,478)" d="m0 0 5 2v2l3 1-4 1-4-2-11-1v-1z" fill="#C4CEAE"/>
<path transform="translate(392,473)" d="m0 0 1 4-1 4-9-1 5-4h2v-2z" fill="#627746"/>
<path transform="translate(715,388)" d="m0 0h1v16l-4-1-1-4 2-3 1-4z" fill="#D7D4BE"/>
<path transform="translate(759,355)" d="m0 0 1 4v7l-1 1-1 17h-1v-22z" fill="#CCCBB2"/>
<path transform="translate(506,318)" d="m0 0 1 3-6 10-6 11-1-3 6-11z" fill="#CDD1B6"/>
<path transform="translate(277,884)" d="m0 0 3 1 2 4v3l-7 1 1-6z" fill="#D0CEB6"/>
<path transform="translate(546,827)" d="m0 0 2 1 2 10-3 6h-1z" fill="#D5D2BC"/>
<path transform="translate(616,286)" d="m0 0 2 1-10 9-4 3h-2v2h-2l2-4 10-8z" fill="#CED5BA"/>
<path transform="translate(725,411)" d="m0 0 4 1 2 5-7 4 1-7z" fill="#B9D3AE"/>
<path transform="translate(595,384)" d="m0 0h3l5 1v4l-4 2v-2l-4 1-1-4z" fill="#7B9162"/>
<path transform="translate(542,919)" d="m0 0h9l-1 2-5 1 8 1-1 2-11-1z" fill="#ACB393"/>
<path transform="translate(257,874)" d="m0 0h5l1 4-3 3h-3z" fill="#D5D7C0"/>
<path transform="translate(588,872)" d="m0 0h1v11l-5-1 1-6z" fill="#1C2011"/>
<path transform="translate(761,713)" d="m0 0 5 1 7 2v3l-8-1-4-3z" fill="#C8C9AE"/>
<path transform="translate(594,501)" d="m0 0 5 1 3 2-4 3h-7v-2l4-2z" fill="#C5CEAE"/>
<path transform="translate(206,461)" d="m0 0 6 2-5 5h-3v-6z" fill="#969776"/>
<path transform="translate(792,352)" d="m0 0h5v20h-1v-18l-4 1-2-1-1 3v-4z" fill="#1C2010"/>
<path transform="translate(736,878)" d="m0 0h4l-3 10-3-1v-6z" fill="#2C2F19"/>
<path transform="translate(788,773)" d="m0 0h2v11l-1 2h2l-2 5h-1z" fill="#202312"/>
<path transform="translate(760,712)" d="m0 0 4 5 5 6v3l-4-2-5-7z" fill="#8BA076"/>
<path transform="translate(376,556)" d="m0 0 5 1 2 3-3 3-4-1z" fill="#DBD7C2"/>
<path transform="translate(723,414)" d="m0 0h1v10l-2 4-1-5-5-1 2-1v-2l4-1z" fill="#889E73"/>
<path transform="translate(530,200)" d="m0 0h3l-1 4-6 7-2-1 3-6 2-1z" fill="#6B814F"/>
<path transform="translate(227,884)" d="m0 0m-3 0 3 1-1 6-4 1-1-4 1-3z" fill="#222614"/>
<path transform="translate(499,869)" d="m0 0 3 1v7h-2v9h-1z" fill="#2D3019"/>
<path transform="translate(398,789)" d="m0 0h5l1 5-3 4z" fill="#DBD7C2"/>
<path transform="translate(399,446)" d="m0 0h2v2l4-1 1 2v5l-4 1-3-6z" fill="#617646"/>
<path transform="translate(594,387)" d="m0 0 2 3 1 6-5-2-3 3 1-4 3-3z" fill="#627746"/>
<path transform="translate(625,376)" d="m0 0 3 1 1 2h-2l-1 7-1-4-4-1 2-4z" fill="#617646"/>
<path transform="translate(531,890)" d="m0 0 8 1 4 1-1 2-9 1z" fill="#C0B9A0"/>
<path transform="translate(755,880)" d="m0 0 7 6-4 3-4-4z" fill="#363A1F"/>
<path transform="translate(250,772)" d="m0 0h1v9l-1 5h-2v-10z" fill="#C1C4A8"/>
<path transform="translate(813,712)" d="m0 0h1l-1 7-4 7-2 1 1-7 4-2z" fill="#5A6541"/>
<path transform="translate(491,432)" d="m0 0 2 2v3h7l-1 2h-10z" fill="#C3CFAE"/>
<path transform="translate(696,393)" d="m0 0 6 2-1 5-5-1z" fill="#C5BDA5"/>
<path transform="translate(467,180)" d="m0 0h1l1 5h1l-1 7-3 1v-9z" fill="#C6C9AD"/>
<path transform="translate(328,878)" d="m0 0h10v4l-8-1z" fill="#222614"/>
<path transform="translate(524,870)" d="m0 0h1v10l-3 1v-10z" fill="#404629"/>
<path transform="translate(599,396)" d="m0 0 3 1-2 7h-2v-2h-2l1-5z" fill="#627647"/>
<path transform="translate(426,233)" d="m0 0h7l-1 4-2 3-5-6z" fill="#C4CBAC"/>
<path transform="translate(792,706)" d="m0 0 4 1-2 5h-2v2l-3-1z" fill="#1C2010"/>
<path transform="translate(532,516)" d="m0 0 3 1-3 3-7 2-1-3z" fill="#C0D0AE"/>
<path transform="translate(564,414)" d="m0 0 2 1 1 7-2-2-1 5-2 2v-9h2z" fill="#5F7245"/>
<path transform="translate(276,874)" d="m0 0h5l1 4-4 2-2-3z" fill="#CECEB6"/>
<path transform="translate(814,711)" d="m0 0h2v7l-2 5-2-1z" fill="#32351D"/>
<path transform="translate(770,709)" d="m0 0h6l2 1v3h-7z" fill="#CECEB5"/>
<path transform="translate(796,705)" d="m0 0 3 1-1 10-3-2z" fill="#C7C8AE"/>
<path transform="translate(449,678)" d="m0 0h3v2l3 1 2 2-4 2-3-1 1-3h-2z" fill="#B8C4A2"/>
<path transform="translate(427,452)" d="m0 0 4 4 3 6-5-1-1-2-1-3z" fill="#869D71"/>
<path transform="translate(589,155)" d="m0 0h8l2 1-1 2-6-1-4 2v2h-2l1-4z" fill="#617147"/>
<path transform="translate(272,824)" d="m0 0 7 5 4 2-2 1-6-3h-4l-2 1 2-5z" fill="#262B17"/>
<path transform="translate(440,454)" d="m0 0 4 4 5 9-5-2-2-6z" fill="#C6CDAF"/>
<path transform="translate(523,407)" d="m0 0 3 3-2 3v2h-5l1-4z" fill="#555D3D"/>
<path transform="translate(560,396)" d="m0 0 2 4-1 5-2-1-2 2-1-3 1-5h2z" fill="#607445"/>
<path transform="translate(669,340)" d="m0 0h4v2l-5 5h-3v-3z" fill="#56603E"/>
<path transform="translate(732,288)" d="m0 0h5v3l-1 2-5-1z" fill="#969776"/>
<path transform="translate(625,920)" d="m0 0h7l-1 2 2 2h-8z" fill="#E5E3D2"/>
<path transform="translate(410,916)" d="m0 0 7 1-2 1v4l-4-1z" fill="#31341B"/>
<path transform="translate(351,869)" d="m0 0h6l2 2v4h-5l1-4z" fill="#2E331C"/>
<path transform="translate(805,709)" d="m0 0h7l2 3h-10z" fill="#C7C6AD"/>
<path transform="translate(410,458)" d="m0 0 5 2-1 3-1-1-2 3-3-3 1-3zm-2 5 2 1-2 1z" fill="#617646"/>
<path transform="translate(202,396)" d="m0 0 5 1h3l-1 4h-2l-1 3-2-4z" fill="#F4F3E6"/>
</svg>
